<svg width="177" height="177" viewBox="0 0 177 177" fill="none" xmlns="http://www.w3.org/2000/svg">
<path d="M88.5 0C39.825 0 0 39.825 0 88.5C0 137.175 39.825 177 88.5 177C137.175 177 177 137.175 177 88.5C177 39.825 137.175 0 88.5 0ZM88.5 26.55C103.545 26.55 115.05 38.055 115.05 53.1C115.05 68.145 103.545 79.65 88.5 79.65C73.455 79.65 61.95 68.145 61.95 53.1C61.95 38.055 73.455 26.55 88.5 26.55ZM88.5 152.22C66.375 152.22 46.905 140.715 35.4 123.9C35.4 106.2 70.8 96.465 88.5 96.465C106.2 96.465 141.6 106.2 141.6 123.9C130.095 140.715 110.625 152.22 88.5 152.22Z" fill="#3F3F3F"/>
</svg>
